<svg version="1.2" baseProfile="tiny" id="Layer_1" xmlns="http://www.w3.org/2000/svg" xmlns:xlink="http://www.w3.org/1999/xlink" x="0px" y="0px" viewBox="0 0 500 488.7" overflow="visible" xml:space="preserve" ><linearGradient id="SVGID_1_" gradientUnits="userSpaceOnUse" x1="250" y1="-1.340658e-05" x2="250" y2="488.6687"><stop offset="0" style="stop-color: rgb(36, 107, 232);"></stop><stop offset="0.9995" style="stop-color: rgb(50, 147, 242);"></stop></linearGradient><path fill="url(#SVGID_1_)" d="M282.7,0c-11.7,0-22.8,5.2-29.9,14.3c-50.7,64.8-81.3,141.4-95.2,217.5
	c-12.1,66.6-6.4,151.3,16.2,229.3c4.7,16.2,12.8,27.5,76.8,27.5l0,0l0,0c172.6,0,249.3-67.3,249.3-244.5l0,0
	C500,72.4,426.8,0,282.7,0 M278.1,466.6c-10.5,5.3-23.3,1.2-28.7-9c-0.1-0.2-0.1-0.3-0.2-0.5l0,0c-34.7-66-46.3-140.9-32.8-215.3
	c13.5-74.5,50.9-141,106.9-191.4l0,0c0.1-0.1,0.3-0.3,0.4-0.4c8.8-7.7,22.3-7,30.1,1.6c7.9,8.6,7.1,21.8-1.7,29.4
	c-0.1,0.1-0.2,0.2-0.4,0.3l0,0c-47.4,42.9-81.3,100.7-93.5,167.7c-12.1,66.8-0.6,132.3,28.6,188.5l-0.1,0.1c0.2,0.3,0.4,0.6,0.5,0.9
	C292.7,448.8,288.5,461.4,278.1,466.6 M407.9,154c-0.2,0.2-0.5,0.3-0.8,0.5c-34.7,27.4-59.8,65-68.5,108.8
	c-8.8,44,0.3,87.1,22.5,123.6l-0.2,0.1c0.2,0.3,0.4,0.5,0.6,0.8c3.6,6.3,0.9,14-6.2,17.2c-7.1,3.2-15.7,0.8-19.4-5.5
	c-0.1-0.2-0.2-0.4-0.3-0.6l0,0c-25.2-41.4-35.4-90.2-25.5-140c9.9-49.7,38.4-92.4,78-123.5l0,0c0.3-0.2,0.5-0.5,0.8-0.7
	c6-4.6,15.2-4.1,20.4,1.3C414.6,141.2,413.9,149.3,407.9,154 M76.8,430.4c1.7,8.6-8.9,14.5-15.5,8.5C23.6,404.8,0,361.5,0,244.2l0,0
	C0,93.4,59.2,29,139.8,7.1c8-2.2,14.6,6.4,10.4,13.4c-36.6,60.3-62.1,127.3-74.8,197.1C62.6,288.3,63.1,360.7,76.8,430.4z"></path></svg>