<svg width="57" height="57" viewBox="0 0 57 57" fill="none" xmlns="http://www.w3.org/2000/svg">
<path fill-rule="evenodd" clip-rule="evenodd" d="M36.3 23.1C36.8 24.6 38.2 25.5 39.8 25.5C40.2 25.5 40.6 25.4 41 25.3C42.9 24.6 43.9 22.5 43.2 20.6C42 17.3 39.5 14.7 36 13.1C34.2 12.3 32 13.1 31.1 14.9C30.3 16.7 31.1 18.9 32.9 19.8C34.7 20.6 35.8 21.7 36.3 23.1Z" fill="#FF9E1A"/>
<path fill-rule="evenodd" clip-rule="evenodd" d="M35.1 0.100002C33.1 -0.299998 31.2 1 30.8 3C30.4 5 31.7 6.9 33.7 7.3C42 8.9 47.6 14.5 49 22.6C49.3 24.4 50.9 25.6 52.6 25.6C52.8 25.6 53 25.6 53.2 25.5C55.2 25.1 56.5 23.2 56.2 21.3C54.3 10.3 46.4 2.3 35.1 0.100002Z" fill="#FF9E1A"/>
<path fill-rule="evenodd" clip-rule="evenodd" d="M25.8 36.7C22.5 36.7 19.7 34 19.7 30.6C19.7 27.3 22.4 24.5 25.8 24.5C27.8 24.5 29.5 22.9 29.5 20.8C29.5 18.7 27.9 17.1 25.8 17.1C18.4 17.1 12.4 23.1 12.4 30.5C12.4 37.9 18.4 43.9 25.8 43.9C33.2 43.9 39.2 37.9 39.2 30.5C39.2 28.5 37.6 26.8 35.5 26.8C33.5 26.8 31.8 28.4 31.8 30.5C31.9 34 29.1 36.7 25.8 36.7Z" fill="#1856ED"/>
<path fill-rule="evenodd" clip-rule="evenodd" d="M47.9 27C45.9 27 44.2 28.6 44.2 30.7C44.2 40.9 35.9 49.2 25.7 49.2C15.5 49.2 7.2 40.9 7.2 30.7C7.2 20.5 15.5 12.2 25.7 12.2C27.7 12.2 29.4 10.6 29.4 8.5C29.4 6.5 27.8 4.8 25.7 4.8C11.6 4.8 0 16.4 0 30.6C0 44.8 11.6 56.4 25.8 56.4C40 56.4 51.6 44.8 51.6 30.6C51.6 28.6 50 27 47.9 27Z" fill="#1856ED"/>
</svg>
