<svg  viewBox="0 0 28 36" fill="#f225f2" version="1.1" xmlns="http://www.w3.org/2000/svg" xmlns:xlink="http://www.w3.org/1999/xlink" ><title>Drip Logo</title><g id="drip-logo" stroke="none" stroke-width="1" fill-rule="evenodd"><g transform="translate(-10.000000, -6.000000)" fill-rule="nonzero"><path d="M37.3043962,27.8044164 C37.31259,27.9436683 37.31259,28.0829202 37.31259,28.2208202 C37.31259,36.4880577 30.4844425,42 23.656295,42 C16.8281475,42 10,36.4880577 10,28.2208202 C10,28.0829202 10.0081938,27.9396124 10.0081938,27.8044164 L14.1160073,27.8044164 C14.102351,27.9504281 14.102351,28.0856242 14.102351,28.2208202 C14.102351,34.226228 19.0650486,37.944119 23.6617575,37.944119 C28.2584664,37.944119 33.221164,34.226228 33.221164,28.2208202 C33.221164,28.0842722 33.2170671,27.9463722 33.2075077,27.8044164 L37.3043962,27.8044164 Z M23.656295,11.1509689 L20.729751,15.0581343 L15.5663058,15.0581343 C17.9875414,11.8082179 20.6947823,8.77699613 23.656295,6 C26.6178077,8.77699613 29.3250486,11.8082179 31.7462841,15.0581343 L26.582839,15.0581343 L23.656295,11.1509689 Z M23.656295,24.2217215 C22.1478623,24.2217215 20.925036,23.011135 20.925036,21.5178008 C20.925036,20.0244667 22.1478623,18.8138801 23.656295,18.8138801 C25.1647277,18.8138801 26.387554,20.0244667 26.387554,21.5178008 C26.387554,23.011135 25.1647277,24.2217215 23.656295,24.2217215 Z M31.850072,24.2217215 C30.3416393,24.2217215 29.118813,23.011135 29.118813,21.5178008 C29.118813,20.0244667 30.3416393,18.8138801 31.850072,18.8138801 C33.3585047,18.8138801 34.581331,20.0244667 34.581331,21.5178008 C34.581331,23.011135 33.3585047,24.2217215 31.850072,24.2217215 Z M15.462518,24.2217215 C13.9540853,24.2217215 12.731259,23.011135 12.731259,21.5178008 C12.731259,20.0244667 13.9540853,18.8138801 15.462518,18.8138801 C16.9709507,18.8138801 18.193777,20.0244667 18.193777,21.5178008 C18.193777,23.011135 16.9709507,24.2217215 15.462518,24.2217215 Z"></path></g></g></svg>